<svg width="1560" height="1042" viewBox="0 0 1560 1042" fill="none" xmlns="http://www.w3.org/2000/svg">
<g clip-path="url(#clip0_89_6093)">
<g style="mix-blend-mode:color-dodge">
<path d="M0.685547 1040.94C520.152 1038.74 1039.74 1037.76 1559.21 1040.94" stroke="#4D4D4D" stroke-miterlimit="10"/>
<path d="M0.685547 1020.22C151.073 1010.16 303.767 1006.73 454.362 1014.67C515.871 1017.91 577.547 1019.51 639.078 1016.11C706.178 1012.39 770.056 997.547 836.263 988.486C954.004 972.359 1073.39 1010.24 1190.63 1016.56C1314.13 1023.23 1435.4 1005.9 1559.21 1021.7" stroke="#4D4D4D" stroke-miterlimit="10"/>
<path d="M0.685547 997.069C156.891 979.799 318.791 976.64 475.371 992.143C538.148 998.357 601.445 1001.64 664.326 995.053C738.533 987.301 802.931 958.746 874.332 941.31C993.59 912.194 1111.33 982.895 1228.41 994.388C1279.8 999.438 1330.67 988.403 1381.93 985.098C1442.55 981.17 1500.38 987.426 1559.21 1002.45" stroke="#4D4D4D" stroke-miterlimit="10"/>
<path d="M0.685547 971.964C161.692 948.625 327.228 951.493 488.358 973.128C551.759 981.628 615.201 986.304 678.748 976.453C711.809 971.32 744.06 962.695 775.605 951.576C818.495 936.468 858.04 908.703 900.578 894.82C1019.96 855.854 1133.25 955.276 1246.47 973.044C1298.42 981.191 1345.82 964.295 1397 958.455C1454 951.951 1505.91 963.09 1559.23 983.228" stroke="#4D4D4D" stroke-miterlimit="10"/>
<path d="M0.685547 945.279C158.304 917.66 319.331 926.305 476.389 954.257C544.548 966.394 612.812 974.395 681.387 960.471C768.456 942.786 832.668 890.435 912.381 856.976C1041.66 802.713 1144.6 934.348 1265.19 954.361C1312.8 962.259 1352.05 942.1 1397.62 933.309C1456.12 922.024 1506.66 938.629 1559.21 964.004" stroke="#4D4D4D" stroke-miterlimit="10"/>
<path d="M0.685547 917.452C158.429 885.073 313.159 904.235 468.575 939.294C536.943 954.715 605.497 963.152 674.467 946.09C710.271 937.237 744.102 922.793 776.768 905.835C825.665 880.46 868.929 838.064 917.992 815.391C1049.86 754.436 1143.96 908.142 1261.26 933.662C1314.65 945.279 1350.16 919.759 1399.39 907.227C1457.91 892.347 1508.92 916.351 1559.21 944.76" stroke="#4D4D4D" stroke-miterlimit="10"/>
<path d="M0.685547 888.918C155.312 852.196 297.138 882.85 446.964 923.645C516.536 942.578 586.067 954.029 656.908 934.39C694.395 923.998 729.285 906.874 762.783 887.359C815.274 856.789 860.555 808.054 913.399 780.331C1052.19 707.531 1134.5 886.029 1254.45 914.459C1310.82 927.822 1343.84 897.189 1394.05 881.374C1454.81 862.234 1508.82 894.03 1559.19 925.516" stroke="#4D4D4D" stroke-miterlimit="10"/>
<path d="M0.685547 860.072C148.351 819.381 273.76 859.574 413.695 905.585C483.101 928.404 552.32 945.487 624.656 926.783C734.709 898.332 806.443 811.754 898.936 753.418C1049.14 658.713 1116.07 869.611 1247.11 896.462C1303.84 908.1 1335.93 871.918 1386.07 854.44C1449.57 832.307 1508.19 872.168 1559.21 906.23" stroke="#4D4D4D" stroke-miterlimit="10"/>
<path d="M0.685547 831.372C143.966 785.09 253.977 837.108 385.558 888.669C456.606 916.496 528.464 939.066 604.167 916.06C716.402 881.956 789.548 789.059 882.333 724.448C1040.08 614.614 1091.86 849.307 1227.35 876.906C1285.01 888.648 1320.61 848.497 1369.98 828.899C1439.72 801.217 1503.75 848.33 1559.21 887.048" stroke="#4D4D4D" stroke-miterlimit="10"/>
<path d="M0.685547 803.191C64.876 778.731 127.529 773.099 193.922 792.842C255.224 811.068 307.86 847.873 365.713 873.913C434.039 904.671 504.234 931.646 579.002 907.144C697.762 868.219 769.246 762.521 866.165 692.401C1023.1 578.847 1068.75 820.898 1197.59 853.547C1262.82 870.069 1300.62 822.166 1356.08 800.261C1431.04 770.646 1501.07 825.927 1559.21 867.803" stroke="#4D4D4D" stroke-miterlimit="10"/>
<path d="M0.685547 775.987C58.4549 749.823 116.016 741.676 177.027 762.126C237.124 782.264 285.937 824.659 341.296 854.004C405.694 888.149 471.963 922.419 546.065 900.556C670.311 863.938 748.299 745.23 844.72 668.419C1009.13 537.428 1036.42 800.843 1171.12 831.164C1240.23 846.73 1283.27 791.179 1342.62 769.524C1422.45 740.408 1499.03 804.023 1559.19 848.538" stroke="#4D4D4D" stroke-miterlimit="10"/>
<path d="M0.685547 750.155C134.199 678.456 214.39 763.269 323.134 831.809C384.893 870.734 451.39 915.769 527.072 890.705C649.634 850.118 730.262 728.084 823.171 646.93C883.143 594.559 940.559 582.401 991.928 648.655C1036.48 706.097 1065.1 788.831 1144.37 805.477C1213.4 819.963 1262.16 763.103 1321.38 739.93C1408.53 705.806 1494.81 780.414 1559.21 829.315" stroke="#4D4D4D" stroke-miterlimit="10"/>
<path d="M0.685547 726.131C130.002 644.852 210.588 729.248 312.577 805.851C366.98 846.709 428.573 903.299 502.073 884.117C546.813 872.438 586.483 839.249 620.646 809.946C686.312 753.647 740.818 687.227 803.159 627.748C862.924 570.721 921.836 548.277 973.08 623.508C1011.27 679.579 1040.57 766.199 1117.36 778.44C1190.36 790.078 1243.79 727.44 1307.81 705.785C1400.16 674.529 1493.25 758.53 1559.21 810.029" stroke="#4D4D4D" stroke-miterlimit="10"/>
<path d="M0.685547 704.351C51.0986 668.086 106.728 645.33 168.154 667.421C222.848 687.102 265.365 732.823 307.403 770.917C354.782 813.853 414.63 890.082 487.361 875.098C528.298 866.66 564.31 835.321 594.899 808.636C662.414 749.719 721.597 681.47 782.296 615.819C839.109 554.345 902.074 510.12 955.064 595.681C990.744 653.268 1018.44 744.357 1099.36 747.557C1171.18 750.404 1225.15 693.046 1289.88 671.889C1389.16 639.448 1489.89 734.797 1559.23 790.805" stroke="#4D4D4D" stroke-miterlimit="10"/>
<path d="M0.685547 684.359C52.4286 644.041 110.073 617.274 175.427 640.508C230.578 660.106 276.253 704.788 317.024 744.96C359.416 786.753 416.313 868.842 485.719 854.835C524.558 847 558.72 815.598 587.356 790.119C652.835 731.825 711.31 665.364 770.472 600.876C824.646 541.834 888.276 488.008 942.014 573.174C977.174 628.891 1003.88 717.818 1083.28 718.919C1154.47 719.896 1213.84 668.211 1280.32 650.504C1383.78 622.926 1484.9 713.329 1559.21 771.083" stroke="#4D4D4D" stroke-miterlimit="10"/>
<path d="M0.685547 662.08C57.7691 617.17 118.676 593.021 188.457 624.194C246.164 649.985 296.701 698.782 341.358 741.988C381.423 780.767 431.067 846.211 494.239 825.823C532.787 813.375 566.305 780.123 595.065 753.397C652.71 699.841 706.282 641.838 760.664 585.02C812.49 530.84 875.371 478.137 931.083 553.68C970.711 607.423 995.939 693.378 1075.05 697.306C1145.52 700.797 1213.65 654.308 1281.58 641.838C1384.32 622.968 1479.87 693.794 1559.23 748.368" stroke="#4D4D4D" stroke-miterlimit="10"/>
<path d="M0.685547 637.328C62.0706 590.485 124.619 569.89 196.332 606.882C251.276 635.209 301.98 680.826 347.177 722.452C389.298 761.253 441.021 828.109 504.671 798.515C537.899 783.074 565.246 753.667 591.346 728.791C646.247 676.42 698.177 620.89 751.791 567.23C807.253 511.721 870.093 468.681 927.634 542.478C967.241 593.291 995.772 673.282 1070.87 676.607C1139.97 679.683 1208.6 646.577 1276.04 635.562C1380.13 618.562 1472.54 671.64 1559.23 722.785" stroke="#4D4D4D" stroke-miterlimit="10"/>
<path d="M0.685547 610.561C71.4841 559.478 139.02 547.923 214.411 595.452C268.586 629.597 318.666 675.859 367.147 717.569C407.627 752.4 453.156 807.078 509.804 775.406C540.143 758.447 565.391 728.209 589.558 703.748C641.011 651.647 691.112 598.279 744.06 547.674C798.92 495.24 861.718 457.396 920.111 523.65C963.708 573.111 993.902 652.001 1068.82 659.15C1134.83 665.447 1206.78 639.635 1271.71 629.577C1375.49 613.512 1466.8 650.193 1559.19 694.978" stroke="#4D4D4D" stroke-miterlimit="10"/>
<path d="M0.685547 582.276C77.3857 530.674 147.914 525.146 224.781 579.138C282.778 619.871 334.896 671.349 390.047 715.989C427.971 746.664 469.926 788.727 517.326 753.48C548.663 730.183 574.243 695.082 600.26 666.486C644.252 618.167 689.346 570.493 737.743 526.559C797.05 472.712 861.365 447.275 921.088 512.178C964.81 559.686 998.307 633.837 1070.15 641.88C1138.14 649.486 1211.66 631.634 1279.01 622.386C1378.05 608.794 1466.2 630.928 1559.21 665.364" stroke="#4D4D4D" stroke-miterlimit="10"/>
<path d="M0.685547 552.911C88.1292 498.233 162.46 504.052 242.735 568.144C303.642 616.775 355.551 673.365 419.035 719.252C462.591 750.716 493.99 768.485 533.743 724.635C601.299 650.11 656.014 565.173 735.166 500.914C793.268 453.759 857.188 436.177 915.082 491.063C963.999 537.428 996.915 608.607 1067.53 625.316C1132.71 640.716 1214.53 625.524 1280.07 616.588C1376.8 603.391 1464.1 611.143 1559.23 634.585" stroke="#4D4D4D" stroke-miterlimit="10"/>
<path d="M0.685547 522.964C98.6024 465.833 178.337 484.392 260.897 557.525C320.038 609.917 369.225 670.58 436.345 713.62C485.615 745.23 511.549 750.82 545.255 700.486C598.66 620.744 652.419 539.236 730.221 480.423C793.123 432.852 856.856 422.17 918.324 477.014C969.506 522.694 1005.93 596.18 1078.31 612.348C1142.5 626.688 1217.42 619.871 1282.13 611.06C1376.07 598.258 1464.33 592.48 1559.23 603.059" stroke="#4D4D4D" stroke-miterlimit="10"/>
<path d="M0.685547 492.913C107.413 433.995 190.909 463.028 275.505 543.642C335.373 600.689 384.727 670.372 458.435 710.814C513.149 740.845 532.35 725.237 558.45 673.76C599.969 591.899 652.481 509.165 729.389 455.837C794.494 410.678 860.347 409.285 921.503 461.178C974.847 506.463 1013.71 578.037 1085.17 598.112C1238.44 641.173 1405.25 576.811 1559.23 571.47" stroke="#4D4D4D" stroke-miterlimit="10"/>
<path d="M0.685547 463.215C53.7793 434.93 103.694 418.138 163.105 438.734C212.25 455.775 252.502 491.541 288.555 527.972C348.029 588.116 398.878 669.042 478.114 704.788C537.545 731.597 551.614 695.477 571.667 645.08C604.354 562.866 653.707 478.635 730.823 430.504C898.894 325.574 959.552 537.886 1093.27 583.918C1249.44 637.682 1406.52 569.849 1559.23 540.275" stroke="#4D4D4D" stroke-miterlimit="10"/>
<path d="M0.685547 434.348C56.0651 405.046 107.102 388.711 167.593 410.968C218.339 429.631 259.359 467.766 296.119 506.4C353.93 567.147 413.715 672.305 499.954 696.496C560.321 713.433 569.838 656.947 585.132 611.475C611.897 531.88 658.03 444.116 735.208 402.011C895.424 314.601 976.114 511.139 1097.08 566.69C1255.78 639.573 1409.45 564.84 1559.21 510.017" stroke="#4D4D4D" stroke-miterlimit="10"/>
<path d="M0.685547 406.812C56.6054 376.387 106.977 359.865 168.528 381.416C219.565 399.289 261.271 439.17 297.553 478.033C356.424 541.107 419.534 660.916 511.071 678.789C573.287 690.947 582.015 628.787 595.606 582.11C618.942 502.036 660.96 413.4 741.608 376.158C902.053 302.07 988.582 490.751 1106.93 551.768C1168.54 583.523 1248.32 599.796 1316.95 588.74C1403.96 574.732 1483.53 523.172 1559.23 481.337" stroke="#4D4D4D" stroke-miterlimit="10"/>
<path d="M0.685547 381.042C60.242 346.606 117.803 326.759 183.739 356.519C233.217 378.86 272.471 419.926 307.943 459.786C361.1 519.514 428.095 645.35 517.513 654.786C584.821 661.893 593.32 588.386 607.741 538.758C630.039 462.051 670.186 379.816 751.001 350.222C910.24 291.886 1002.32 466.81 1117.21 535.163C1175.27 569.703 1251.16 593.353 1319.07 584.895C1410.05 573.548 1488.79 507.71 1559.19 454.611" stroke="#4D4D4D" stroke-miterlimit="10"/>
<path d="M0.685547 357.537C56.9171 321.709 112.276 296.77 178.711 323.6C231.95 345.11 274.342 390.768 310.915 433.434C363.198 494.43 428.947 619.664 521.835 621.867C588.062 623.425 600.323 548.859 615.95 499.064C640.117 422.129 678.332 347.5 763.095 325.741C925.41 284.051 1015.53 443.991 1131.68 520.719C1188.53 558.294 1264.36 589.28 1333.62 579.284C1424.2 566.191 1496.97 490.897 1559.21 430.504" stroke="#4D4D4D" stroke-miterlimit="10"/>
<path d="M0.685547 336.776C52.3039 299.347 105.917 267.987 171.562 289.974C222.723 307.099 263.016 349.037 297.449 388.815C353.847 453.946 410.578 569.807 507.663 577.205C581.475 582.817 600.655 511.076 621.893 454.32C650.86 376.886 691.237 311.318 779.948 299.326C937.213 278.066 1027.84 413.296 1137.1 498.42C1191.88 541.086 1266.04 581.944 1337.71 574.961C1432.78 565.692 1502.75 477.284 1559.21 409.514" stroke="#4D4D4D" stroke-miterlimit="10"/>
<path d="M0.685547 320.399C52.0545 284.55 105.024 255.039 169.359 275.988C219.461 292.302 259.338 332.391 293.356 370.963C348.153 433.06 406.151 552.267 500.452 555.53C573.371 558.044 598.328 493.453 624.469 436.676C657.988 363.917 703.352 297.31 789.382 285.693C941.141 265.202 1035.94 391.537 1143.65 472.338C1196.49 511.97 1271.03 552.288 1338.9 550.957C1433.78 549.087 1504.06 458.83 1559.21 392.95" stroke="#4D4D4D" stroke-miterlimit="10"/>
<path d="M0.685547 309.198C51.2441 274.595 103.444 245.895 166.513 264.973C215.242 279.708 254.538 317.241 288.015 353.984C341.94 413.192 399.689 531.152 490.935 531.713C562.482 532.15 592.946 475.206 624.179 419.739C662.331 351.988 712.412 286.982 795.388 275.593C941.66 255.538 1040.47 368.843 1148.24 444.262C1200.56 480.88 1274.29 521.738 1339.04 527.515C1433.45 535.932 1504.87 444.781 1559.19 381.271" stroke="#4D4D4D" stroke-miterlimit="10"/>
<path d="M0.685547 302.257C49.1868 269.109 101.034 240.45 161.608 255.829C213.248 268.922 254.268 307.972 289.428 345.775C342.875 403.237 396.468 509.975 485.761 506.005C553.318 503.013 587.751 451.722 623.036 401.242C666.363 339.228 718.667 281.079 798.006 269.816C942.076 249.345 1043.01 347.292 1155.1 417.161C1206.88 449.457 1272.59 487.759 1332.25 503.2C1428.96 528.222 1502.6 437.59 1559.21 373.581" stroke="#4D4D4D" stroke-miterlimit="10"/>
<path d="M0.685547 298.682C47.8569 266.033 98.6025 236.751 158.18 248.867C207.782 258.967 248.096 293.715 282.654 328.608C336.849 383.307 387.304 481.545 473.812 477.7C539.436 474.791 578.898 431.605 619.046 385.074C667.152 329.336 722.677 276.383 798.962 265.285C936.943 245.209 1042.67 323.517 1156.07 385.822C1212.34 416.746 1271.53 454.549 1330.61 479.571C1425.72 519.867 1500.48 432.665 1559.19 369.051" stroke="#4D4D4D" stroke-miterlimit="10"/>
<path d="M0.685547 297.581C99.9324 227.212 185.776 227.565 275.9 311.006C331.238 362.234 378.264 450.164 461.739 447.171C525.223 444.885 569.36 409.888 614.1 368.801C666.82 320.399 724.901 273.577 798.151 262.687C929.629 243.131 1040.95 299.763 1155.37 353.485C1218.35 383.058 1269.3 420.154 1327.97 456.128C1420.61 512.926 1496.22 431.834 1559.23 366.889" stroke="#4D4D4D" stroke-miterlimit="10"/>
<path d="M0.685547 298.059C93.0541 230.392 178.066 217.257 269.541 292.572C326.334 339.332 370.077 415.935 450.164 414.356C583.511 411.737 665.635 281.121 795.969 261.42C920.818 242.549 1038.1 276.009 1152.93 320.337C1223.13 347.437 1267.33 385.822 1324.27 432.644C1413.58 506.089 1489.49 434.245 1559.21 366.141" stroke="#4D4D4D" stroke-miterlimit="10"/>
<path d="M0.685547 299.222C85.1576 234.839 169.505 207.573 261.77 271.353C318.812 310.777 360.642 376.657 434.35 379.192C566.887 383.785 665.511 279.957 792.707 260.11C908.765 242.009 1032.8 252.047 1144.77 285.631C1224.48 309.551 1265.19 353.048 1321.38 411.114C1342.37 432.811 1365.97 455.401 1397.5 458.809C1460.21 465.563 1518.88 403.404 1559.21 366.079" stroke="#4D4D4D" stroke-miterlimit="10"/>
<path d="M0.685547 300.178C79.2767 237.873 163.229 198.283 257.551 250.446C315.902 282.721 356.486 337.503 426.08 341.556C555.562 349.1 664.638 279.708 789.195 260.36C900.931 243.006 1027.55 228.542 1139.14 252.483C1224.98 270.896 1263.59 322.249 1315.62 387.879C1335.55 413.026 1358.12 441.955 1391.06 449.852C1454.68 465.106 1517.46 402.406 1559.19 365.85" stroke="#4D4D4D" stroke-miterlimit="10"/>
<path d="M0.685547 300.012C77.3857 236.834 162.627 187.934 261.375 230.08C315.217 253.065 355.281 295.191 415.191 301.051C543.946 313.666 661.022 279.438 786.743 260.983C852.991 251.257 918.262 241.614 983.948 228.376C1035.01 218.089 1084.63 212.748 1136.54 220.188C1226.23 233.031 1264.11 297.123 1310.62 366.952C1329.23 394.904 1351.61 429.61 1385.45 440.729C1450.28 462.051 1514.95 401.367 1559.21 364.52" stroke="#4D4D4D" stroke-miterlimit="10"/>
<path d="M0.685547 297.851C74.5596 235.047 159.842 176.857 260.814 203.77C314.344 218.047 357.546 251.257 413.175 258.281C540.081 274.284 657.656 277.921 784.457 260.256C851.598 250.904 914.542 237.125 978.587 214.93C1027.9 197.847 1075.22 183.84 1128.08 187.58C1222.22 194.231 1260.45 269.94 1302.95 343.468C1321.05 374.787 1342.91 415.083 1377.98 430.317C1444.07 459.017 1512.16 398.707 1559.25 361.361" stroke="#4D4D4D" stroke-miterlimit="10"/>
<path d="M0.685547 292.801C73.5206 229.415 158.471 164.678 260.647 174.488C315.508 179.745 365.713 205.682 420.178 213.704C544.673 232.054 654.185 273.93 782.067 258.323C849.728 250.052 910.531 232.387 971.501 202.169C1017.43 179.413 1061.19 156.386 1113.8 155.721C1216.09 154.474 1254.72 243.817 1295.9 322.623C1313.69 356.664 1335.07 400.951 1371.31 419.198C1438.56 453.073 1509.46 393.407 1559.21 355.438" stroke="#4D4D4D" stroke-miterlimit="10"/>
<path d="M0.685547 283.968C75.0168 218.525 160.195 149.57 263.37 142.753C318.999 139.075 377.558 155.617 431.69 166.84C553.442 192.069 654.809 268.818 784.104 254.852C850.58 247.682 909.285 226.048 965.017 189.555C1009.99 160.106 1051.19 128.538 1107.03 125.275C1211.53 119.186 1249.81 222.952 1287.94 301.695C1306.06 339.083 1326.87 384.305 1364.23 406.438C1431.33 446.174 1508.69 383.39 1559.21 345.982" stroke="#4D4D4D" stroke-miterlimit="10"/>
<path d="M0.685547 270.418C127.882 158.693 261.936 72.5508 435.098 114.406C558.367 144.208 653.313 260.11 787.055 249.179C854.819 243.63 911.903 216.426 963.459 173.345C1003.84 139.615 1039.81 102.623 1094.89 96.6581C1199.96 85.2903 1238.47 191.571 1274.48 270.211C1294.14 313.126 1315.42 366.806 1358.08 392.368C1426.86 433.58 1506.74 370.256 1559.19 332.1" stroke="#4D4D4D" stroke-miterlimit="10"/>
<path d="M0.685547 252.005C123.082 147.429 280.534 31.7552 451.764 79.7206C571.958 113.388 662.768 241.593 794.868 234.818C860.929 231.431 917.056 199.78 963.688 154.931C1000.68 119.373 1033.74 79.2634 1088.14 73.2365C1188.93 62.0349 1229.95 166.944 1265.46 241.531C1286.72 286.15 1308.99 340.766 1352.72 368.219C1422.72 412.174 1503.58 352.155 1559.19 313.417" stroke="#4D4D4D" stroke-miterlimit="10"/>
<path d="M0.685547 232.761C123.518 132.632 284.773 22.0707 453.302 63.5935C577.173 94.1018 675.298 221.331 809.414 212.623C870.197 208.674 921.129 179.143 963.812 137.495C997.871 104.264 1027.73 66.3991 1077.46 58.2733C1176.64 42.0632 1225.64 149.611 1264.13 220.936C1286.24 261.877 1310.22 309.323 1350.35 335.737C1420.52 381.936 1499.49 330.791 1559.21 292.343" stroke="#4D4D4D" stroke-miterlimit="10"/>
<path d="M0.685547 213.516C125.845 116.921 294.956 10.1001 462.237 52.6621C583.865 83.6068 687.974 199.738 819.223 192.61C875.184 189.575 924.184 159.753 963.313 121.805C994.671 91.4001 1022.58 55.1767 1067.63 45.6377C1165.26 24.9801 1221.41 133.359 1263.92 201.026C1289.48 241.697 1316.2 286.462 1360.09 309.468C1429.54 345.858 1498.61 305.686 1559.21 269.712" stroke="#4D4D4D" stroke-miterlimit="10"/>
<path d="M0.685547 194.272C129.856 100.69 303.081 2.41071 470.196 43.8089C590.66 73.6522 699.196 181.179 828.428 172.347C880.483 168.793 924.974 142.628 962.171 107.652C993.445 78.2451 1021.54 42.3957 1066.22 34.1452C1159.04 16.9791 1219.51 118.75 1264.82 181.803C1290.81 217.985 1318.37 254.894 1357.99 276.819C1426.94 314.934 1496.43 280.04 1559.21 245.791" stroke="#4D4D4D" stroke-miterlimit="10"/>
<path d="M0.685547 175.028C130.75 87.4307 298.572 2.86787 461.656 33.6048C587.875 57.4004 701.938 162.891 834.496 153.601C884.764 150.068 927.571 124.423 964.186 91.4625C994.131 64.4872 1021.33 33.397 1062.83 25.5621C1148.74 9.33114 1212.7 96.9906 1259.91 154.266C1290.81 191.778 1324.58 232.948 1370.82 252.13C1436.19 279.251 1500.55 250.28 1559.23 220.894" stroke="#4D4D4D" stroke-miterlimit="10"/>
<path d="M0.685547 155.784C133.991 73.3612 305.284 -2.26527 466.851 28.6379C590.016 52.2049 709.69 145.808 838.507 136.311C932.06 129.411 972.893 37.6989 1057.22 19.1196C1142 0.457204 1211.04 83.0458 1263.15 136.498C1294.49 168.648 1327.2 202.419 1369.51 219.876C1435.01 246.893 1498.57 222.931 1559.19 195.291" stroke="#4D4D4D" stroke-miterlimit="10"/>
<path d="M0.685547 136.539C137.503 60.0398 305.554 -2.05745 465.604 23.6917C589.766 43.6634 711.643 128.517 840.211 118.895C928.527 112.286 975.74 29.8848 1057.26 13.9033C1136.75 -1.66258 1205.13 63.9053 1259.72 111.808C1293.43 141.402 1328.11 172.451 1370.57 188.89C1435.59 214.078 1497.78 194.75 1559.23 169.334" stroke="#4D4D4D" stroke-miterlimit="10"/>
<path d="M0.685547 117.295C139.56 48.4641 305.741 -2.36918 462.902 20.0341C587.148 37.7405 711.913 111.143 839.421 101.895C924.163 95.7437 978.982 24.2529 1059.01 9.7053C1137.95 -4.65522 1209.85 54.5949 1268.89 97.8843C1300.95 121.389 1334.37 145.164 1372.19 158.548C1437.38 181.616 1496.87 166.403 1559.21 143.293" stroke="#4D4D4D" stroke-miterlimit="10"/>
<path d="M0.685547 98.0504C141.036 38.0314 304.889 -2.16146 458.954 16.8751C583.407 32.2539 709.336 93.6238 836.159 85.2278C919.384 79.7205 983.013 19.93 1063.31 6.89959C1137.41 -5.11253 1207.27 39.6108 1267.91 76.0213C1366.47 135.209 1447.81 153.892 1559.21 117.419" stroke="#4D4D4D" stroke-miterlimit="10"/>
<path d="M0.685547 78.8061C141.867 28.6586 297.283 1.03901 447.629 13.737C574.68 24.4814 701.024 74.6497 829.384 68.2072C915.477 63.8845 989.247 12.8849 1073.99 4.23947C1144 -2.90961 1210.08 28.908 1271.67 58.0031C1370.46 104.701 1451.9 122.324 1559.21 92.0859" stroke="#4D4D4D" stroke-miterlimit="10"/>
<path d="M0.685547 59.5619C144.402 19.7015 297.844 1.14302 447.068 11.7212C571.604 20.5536 696.619 57.6499 821.986 52.2673C910.033 48.4849 992.198 11.0354 1079.56 3.34594C1153.08 -3.11733 1222.11 22.5279 1290.48 46.1781C1382.31 77.9541 1463.23 89.7792 1559.21 67.5838" stroke="#4D4D4D" stroke-miterlimit="10"/>
<path d="M0.685547 40.3382C142.303 12.9057 289.013 2.07813 433.249 8.52062C558.845 14.1318 684.296 38.738 810.246 35.4128C906.666 32.8774 1000.74 7.16978 1096.95 2.16126C1165.61 -1.41329 1231.98 14.402 1298.42 29.7601C1386.9 50.2098 1468.92 59.728 1559.21 44.1621" stroke="#4D4D4D" stroke-miterlimit="10"/>
<path d="M0.685547 21.0939C141.181 6.54639 283.111 2.07821 424.334 5.25789C548.497 8.06349 672.597 20.4289 796.863 18.7663C902.552 17.3531 1007.7 4.13565 1113.35 1.51709C1263.19 -2.20293 1408.91 37.2833 1559.21 22.1538" stroke="#4D4D4D" stroke-miterlimit="10"/>
<path d="M0.685547 1.84957C520.173 -1.01838 1039.72 4.98768 1559.21 1.84957" stroke="#4D4D4D" stroke-miterlimit="10"/>
</g>
</g>
<defs>
<clipPath id="clip0_89_6093">
<rect width="1560" height="1042" fill="white"/>
</clipPath>
</defs>
</svg>
