<svg width="61" height="13" viewBox="0 0 61 13" fill="none" xmlns="http://www.w3.org/2000/svg">
<path d="M58.4781 12.3352V7.6646C58.4781 7.12503 58.3038 6.68102 57.9554 6.33255C57.6181 5.98408 57.1797 5.80984 56.6402 5.80984C56.2805 5.80984 55.9601 5.88853 55.6791 6.0459C55.398 6.20328 55.1788 6.42247 55.0215 6.7035C54.8641 6.98452 54.7854 7.30489 54.7854 7.6646L54.0604 7.25992C54.0604 6.64167 54.1953 6.09649 54.465 5.62437C54.7348 5.14101 55.1058 4.76444 55.5779 4.49465C56.0613 4.21363 56.6008 4.07312 57.1966 4.07312C57.8036 4.07312 58.3432 4.23049 58.8153 4.54524C59.2874 4.84874 59.6584 5.2478 59.9281 5.7424C60.1979 6.22576 60.3328 6.7316 60.3328 7.25992V12.3352H58.4781ZM52.9307 12.3352V4.24173H54.7854V12.3352H52.9307Z" fill="white"/>
<path d="M48.9958 12.3352V4.24173H50.8505V12.3352H48.9958ZM49.9231 2.75793C49.6084 2.75793 49.3442 2.65114 49.1307 2.43756C48.9283 2.22399 48.8271 1.95983 48.8271 1.64508C48.8271 1.33033 48.9283 1.06617 49.1307 0.852593C49.3442 0.639015 49.6084 0.532227 49.9231 0.532227C50.2491 0.532227 50.5133 0.639015 50.7156 0.852593C50.918 1.06617 51.0191 1.33033 51.0191 1.64508C51.0191 1.95983 50.918 2.22399 50.7156 2.43756C50.5133 2.65114 50.2491 2.75793 49.9231 2.75793Z" fill="white"/>
<path d="M43.732 12.5038C42.9227 12.5038 42.192 12.324 41.54 11.9643C40.8993 11.5933 40.3878 11.0875 40.0056 10.4467C39.6347 9.80599 39.4492 9.08657 39.4492 8.28847C39.4492 7.49036 39.6347 6.77656 40.0056 6.14707C40.3766 5.50634 40.8768 5.0005 41.5063 4.62955C42.147 4.25859 42.8552 4.07312 43.6308 4.07312C44.384 4.07312 45.0472 4.24735 45.6205 4.59582C46.205 4.94429 46.6603 5.42203 46.9863 6.02904C47.3235 6.63605 47.4921 7.32737 47.4921 8.10299C47.4921 8.23788 47.4809 8.3784 47.4584 8.52453C47.4471 8.65942 47.4247 8.81117 47.3909 8.97979H40.7475V7.46226H46.4298L45.7385 8.06927C45.716 7.57467 45.6205 7.15875 45.4519 6.82153C45.2833 6.4843 45.0416 6.22576 44.7268 6.0459C44.4233 5.86605 44.0468 5.77612 43.5971 5.77612C43.125 5.77612 42.7147 5.87729 42.3662 6.07963C42.0178 6.28196 41.748 6.56861 41.5569 6.93956C41.3658 7.29927 41.2702 7.73204 41.2702 8.23788C41.2702 8.74373 41.3714 9.18774 41.5738 9.56993C41.7761 9.95213 42.0627 10.25 42.4337 10.4636C42.8046 10.6659 43.2318 10.7671 43.7151 10.7671C44.1311 10.7671 44.5133 10.694 44.8617 10.5479C45.2214 10.4018 45.5249 10.1882 45.7722 9.90716L46.9525 11.1043C46.5591 11.5652 46.0814 11.9137 45.5193 12.1497C44.9573 12.3858 44.3615 12.5038 43.732 12.5038Z" fill="white"/>
<path d="M35.0611 12.3351V0.869385H36.9159V12.3351H35.0611ZM33.1221 5.9278V4.24166H38.8549V5.9278H33.1221Z" fill="white"/>
<path d="M27.4389 12.5038C26.7083 12.5038 26.0451 12.3183 25.4493 11.9474C24.8648 11.5764 24.3983 11.0762 24.0498 10.4467C23.7126 9.80599 23.5439 9.0922 23.5439 8.30533C23.5439 7.50722 23.7126 6.79342 24.0498 6.16393C24.3983 5.5232 24.8648 5.01736 25.4493 4.64641C26.0451 4.26422 26.7083 4.07312 27.4389 4.07312C28.0572 4.07312 28.6024 4.20801 29.0745 4.47779C29.5578 4.73633 29.94 5.09604 30.2211 5.55692C30.5021 6.0178 30.6426 6.5405 30.6426 7.12503V9.4519C30.6426 10.0364 30.5021 10.5591 30.2211 11.02C29.9513 11.4809 29.5747 11.8462 29.0913 12.116C28.608 12.3745 28.0572 12.5038 27.4389 12.5038ZM27.7424 10.7502C28.4281 10.7502 28.9789 10.5198 29.3948 10.0589C29.822 9.59804 30.0356 9.00789 30.0356 8.28847C30.0356 7.80511 29.94 7.37795 29.7489 7.007C29.5578 6.63605 29.2881 6.34941 28.9396 6.14707C28.6024 5.93349 28.2033 5.8267 27.7424 5.8267C27.2928 5.8267 26.8937 5.93349 26.5453 6.14707C26.208 6.34941 25.9383 6.63605 25.7359 7.007C25.5448 7.37795 25.4493 7.80511 25.4493 8.28847C25.4493 8.77183 25.5448 9.19898 25.7359 9.56993C25.9383 9.94089 26.208 10.2331 26.5453 10.4467C26.8937 10.6491 27.2928 10.7502 27.7424 10.7502ZM29.9176 12.3352V10.1601L30.2379 8.1873L29.9176 6.23138V4.24173H31.7723V12.3352H29.9176Z" fill="white"/>
<path d="M19.1383 12.3351V0.869385H20.993V12.3351H19.1383ZM17.1992 5.9278V4.24166H22.9321V5.9278H17.1992Z" fill="white"/>
<path d="M13.3095 12.5038C12.8599 12.5038 12.4271 12.4476 12.0112 12.3352C11.5953 12.2116 11.2131 12.0429 10.8646 11.8294C10.5161 11.6045 10.2126 11.3348 9.9541 11.02L11.1344 9.83972C11.4154 10.1657 11.7358 10.413 12.0955 10.5816C12.4664 10.739 12.8824 10.8177 13.3432 10.8177C13.7592 10.8177 14.0739 10.7559 14.2875 10.6322C14.5011 10.5086 14.6078 10.3287 14.6078 10.0926C14.6078 9.84534 14.5067 9.65424 14.3043 9.51935C14.102 9.38446 13.8378 9.27205 13.5119 9.18212C13.1971 9.08095 12.8599 8.97978 12.5002 8.87862C12.1517 8.77745 11.8145 8.64256 11.4885 8.47394C11.1737 8.29409 10.9152 8.05241 10.7129 7.7489C10.5105 7.4454 10.4094 7.05197 10.4094 6.56861C10.4094 6.05152 10.5274 5.60751 10.7634 5.23656C11.0107 4.86561 11.3536 4.57896 11.792 4.37662C12.2416 4.17429 12.7756 4.07312 13.3938 4.07312C14.0458 4.07312 14.6191 4.19115 15.1137 4.42721C15.6195 4.65203 16.0411 4.99488 16.3783 5.45575L15.198 6.63605C14.9619 6.34379 14.6922 6.12459 14.3886 5.97846C14.0851 5.83233 13.7367 5.75926 13.3432 5.75926C12.9723 5.75926 12.6856 5.81546 12.4833 5.92787C12.281 6.04028 12.1798 6.20328 12.1798 6.41685C12.1798 6.64167 12.281 6.81591 12.4833 6.93956C12.6856 7.06321 12.9442 7.17 13.2589 7.25992C13.5849 7.34985 13.9221 7.45102 14.2706 7.56343C14.6303 7.6646 14.9676 7.81073 15.2823 8.00182C15.6083 8.18168 15.8725 8.42898 16.0748 8.74373C16.2771 9.04723 16.3783 9.44628 16.3783 9.94089C16.3783 10.7278 16.1029 11.3516 15.5521 11.8125C15.0013 12.2734 14.2538 12.5038 13.3095 12.5038Z" fill="white"/>
<path d="M0.969727 12.3352V0.532227H2.90879V12.3352H0.969727ZM2.30178 12.3352V10.5648H8.91144V12.3352H2.30178ZM2.30178 7.15875V5.45575H8.33815V7.15875H2.30178ZM2.30178 2.30267V0.532227H8.82714V2.30267H2.30178Z" fill="white"/>
</svg>
